<mxfile host="a81bc4a0-fd3d-4432-acd8-304782c626de" modified="2020-07-15T00:23:54.012Z" agent="5.0 (Windows NT 10.0; Win64; x64) AppleWebKit/537.36 (KHTML, like Gecko) Code/1.47.0 Chrome/78.0.3904.130 Electron/7.3.2 Safari/537.36" etag="8vGkbS7lrUEI84boqiOk" version="13.1.3">
    <diagram id="6hGFLwfOUW9BJ-s0fimq" name="Page-1">
        <mxGraphModel dx="813" dy="360" grid="1" gridSize="10" guides="1" tooltips="1" connect="1" arrows="1" fold="1" page="1" pageScale="1" pageWidth="827" pageHeight="1169" math="0" shadow="0">
            <root>
                <mxCell id="0"/>
                <mxCell id="1" parent="0"/>
                <mxCell id="64" style="edgeStyle=orthogonalEdgeStyle;rounded=0;orthogonalLoop=1;jettySize=auto;html=1;strokeWidth=3;strokeColor=#000000;entryX=0;entryY=0;entryDx=0;entryDy=0;" parent="1" edge="1">
                    <mxGeometry relative="1" as="geometry">
                        <mxPoint x="200" y="240" as="sourcePoint"/>
                        <mxPoint x="360" y="240" as="targetPoint"/>
                        <Array as="points">
                            <mxPoint x="280" y="241"/>
                        </Array>
                    </mxGeometry>
                </mxCell>
                <mxCell id="73" value="&lt;font style=&quot;font-size: 18px&quot;&gt;&lt;b&gt;&lt;font color=&quot;#000000&quot;&gt;①&lt;/font&gt;&lt;font color=&quot;#000000&quot;&gt;connect&lt;/font&gt;&lt;/b&gt;&lt;/font&gt;" style="edgeLabel;html=1;align=center;verticalAlign=middle;resizable=0;points=[];" parent="64" vertex="1" connectable="0">
                    <mxGeometry x="0.3333" y="-30" relative="1" as="geometry">
                        <mxPoint x="-23" y="-30.11" as="offset"/>
                    </mxGeometry>
                </mxCell>
                <mxCell id="65" style="edgeStyle=orthogonalEdgeStyle;rounded=0;orthogonalLoop=1;jettySize=auto;html=1;strokeColor=#000000;strokeWidth=3;entryX=0;entryY=0.333;entryDx=0;entryDy=0;entryPerimeter=0;" parent="1" edge="1" target="61">
                    <mxGeometry relative="1" as="geometry">
                        <mxPoint x="200" y="270" as="sourcePoint"/>
                        <mxPoint x="340" y="270" as="targetPoint"/>
                        <Array as="points"/>
                    </mxGeometry>
                </mxCell>
                <mxCell id="74" value="&lt;font style=&quot;font-size: 18px&quot;&gt;&lt;b&gt;&lt;font color=&quot;#000000&quot;&gt;③&lt;/font&gt;&lt;font color=&quot;#000000&quot;&gt;login&lt;/font&gt;&lt;/b&gt;&lt;/font&gt;" style="edgeLabel;html=1;align=center;verticalAlign=middle;resizable=0;points=[];" parent="65" vertex="1" connectable="0">
                    <mxGeometry x="0.3204" y="2" relative="1" as="geometry">
                        <mxPoint x="-22.34" y="2" as="offset"/>
                    </mxGeometry>
                </mxCell>
                <mxCell id="60" value="&lt;b&gt;&lt;font color=&quot;#000000&quot; style=&quot;font-size: 18px&quot;&gt;Language Server&lt;/font&gt;&lt;/b&gt;" style="rounded=0;whiteSpace=wrap;html=1;fillColor=none;strokeColor=#000000;strokeWidth=3;" parent="1" vertex="1">
                    <mxGeometry x="10" y="220" width="190" height="150" as="geometry"/>
                </mxCell>
                <mxCell id="61" value="&lt;b&gt;&lt;font color=&quot;#000000&quot; style=&quot;font-size: 18px&quot;&gt;MiddleWare&lt;/font&gt;&lt;/b&gt;" style="rounded=0;whiteSpace=wrap;html=1;fillColor=none;strokeColor=#000000;strokeWidth=3;" parent="1" vertex="1">
                    <mxGeometry x="360" y="220" width="180" height="150" as="geometry"/>
                </mxCell>
                <mxCell id="82" value="&lt;b&gt;&lt;font color=&quot;#000000&quot; style=&quot;font-size: 18px&quot;&gt;Auth Server&lt;/font&gt;&lt;/b&gt;" style="rounded=0;whiteSpace=wrap;html=1;fillColor=none;strokeColor=#000000;strokeWidth=3;" parent="1" vertex="1">
                    <mxGeometry x="640" y="90" width="180" height="140" as="geometry"/>
                </mxCell>
                <mxCell id="84" value="" style="endArrow=classic;html=1;strokeColor=#000000;strokeWidth=3;exitX=1.003;exitY=0.116;exitDx=0;exitDy=0;entryX=-0.004;entryY=0.159;entryDx=0;entryDy=0;exitPerimeter=0;entryPerimeter=0;" parent="1" source="61" target="82" edge="1">
                    <mxGeometry width="50" height="50" relative="1" as="geometry">
                        <mxPoint x="480" y="290" as="sourcePoint"/>
                        <mxPoint x="530" y="240" as="targetPoint"/>
                    </mxGeometry>
                </mxCell>
                <mxCell id="87" value="&lt;b&gt;&lt;font color=&quot;#000000&quot; style=&quot;font-size: 18px&quot;&gt;②connect&lt;/font&gt;&lt;/b&gt;" style="edgeLabel;html=1;align=center;verticalAlign=middle;resizable=0;points=[];rotation=-50;" parent="84" vertex="1" connectable="0">
                    <mxGeometry x="-0.1865" y="2" relative="1" as="geometry">
                        <mxPoint as="offset"/>
                    </mxGeometry>
                </mxCell>
                <mxCell id="85" value="" style="endArrow=classic;html=1;strokeColor=#000000;strokeWidth=3;exitX=1;exitY=0.5;exitDx=0;exitDy=0;entryX=0;entryY=0.5;entryDx=0;entryDy=0;" parent="1" source="61" target="82" edge="1">
                    <mxGeometry width="50" height="50" relative="1" as="geometry">
                        <mxPoint x="520" y="340" as="sourcePoint"/>
                        <mxPoint x="570" y="290" as="targetPoint"/>
                    </mxGeometry>
                </mxCell>
                <mxCell id="92" value="&lt;b&gt;&lt;font style=&quot;font-size: 18px&quot;&gt;&lt;font color=&quot;#000000&quot;&gt;④&lt;/font&gt;&lt;font color=&quot;#000000&quot;&gt;login&lt;/font&gt;&lt;/font&gt;&lt;/b&gt;" style="edgeLabel;html=1;align=center;verticalAlign=middle;resizable=0;points=[];rotation=-50;fontSize=13;" parent="85" vertex="1" connectable="0">
                    <mxGeometry x="-0.1918" y="2" relative="1" as="geometry">
                        <mxPoint as="offset"/>
                    </mxGeometry>
                </mxCell>
                <mxCell id="86" value="" style="endArrow=classic;html=1;strokeColor=#000000;strokeWidth=3;entryX=1;entryY=0.75;entryDx=0;entryDy=0;exitX=0.006;exitY=0.865;exitDx=0;exitDy=0;exitPerimeter=0;" parent="1" source="82" target="61" edge="1">
                    <mxGeometry width="50" height="50" relative="1" as="geometry">
                        <mxPoint x="590" y="270" as="sourcePoint"/>
                        <mxPoint x="640" y="220" as="targetPoint"/>
                    </mxGeometry>
                </mxCell>
                <mxCell id="94" value="&lt;font color=&quot;#000000&quot; style=&quot;font-size: 18px&quot;&gt;&lt;b&gt;⑤client list&lt;/b&gt;&lt;/font&gt;" style="edgeLabel;html=1;align=center;verticalAlign=middle;resizable=0;points=[];rotation=-50;fontSize=13;" parent="86" vertex="1" connectable="0">
                    <mxGeometry x="0.0974" y="1" relative="1" as="geometry">
                        <mxPoint x="3.61" y="-8.34" as="offset"/>
                    </mxGeometry>
                </mxCell>
                <mxCell id="95" value="" style="endArrow=classic;html=1;strokeColor=#000000;strokeWidth=3;entryX=1;entryY=0.5;entryDx=0;entryDy=0;exitX=0;exitY=0.5;exitDx=0;exitDy=0;" parent="1" edge="1" target="60" source="61">
                    <mxGeometry width="50" height="50" relative="1" as="geometry">
                        <mxPoint x="361.596" y="304.58000000000004" as="sourcePoint"/>
                        <mxPoint x="219.01999999999998" y="303.94999999999993" as="targetPoint"/>
                        <Array as="points"/>
                    </mxGeometry>
                </mxCell>
                <mxCell id="97" value="&lt;b&gt;&lt;font color=&quot;#000000&quot; style=&quot;font-size: 18px&quot;&gt;⑦login OK&lt;/font&gt;&lt;/b&gt;" style="edgeLabel;html=1;align=center;verticalAlign=middle;resizable=0;points=[];" parent="95" vertex="1" connectable="0">
                    <mxGeometry x="0.076" y="-1" relative="1" as="geometry">
                        <mxPoint x="7.9" as="offset"/>
                    </mxGeometry>
                </mxCell>
                <mxCell id="100" value="" style="endArrow=classic;html=1;strokeColor=#000000;strokeWidth=3;fontSize=13;entryX=0;entryY=0.75;entryDx=0;entryDy=0;exitX=1;exitY=0.75;exitDx=0;exitDy=0;" parent="1" edge="1" target="61" source="60">
                    <mxGeometry width="50" height="50" relative="1" as="geometry">
                        <mxPoint x="201" y="355" as="sourcePoint"/>
                        <mxPoint x="347" y="352" as="targetPoint"/>
                    </mxGeometry>
                </mxCell>
                <mxCell id="101" value="&lt;font color=&quot;#000000&quot; style=&quot;font-size: 18px&quot;&gt;⑧message&lt;/font&gt;" style="edgeLabel;html=1;align=center;verticalAlign=middle;resizable=0;points=[];fontSize=11;fontStyle=1" parent="100" vertex="1" connectable="0">
                    <mxGeometry x="-0.1224" y="-2" relative="1" as="geometry">
                        <mxPoint as="offset"/>
                    </mxGeometry>
                </mxCell>
                <mxCell id="103" value="&lt;b&gt;&lt;font color=&quot;#000000&quot; style=&quot;font-size: 18px&quot;&gt;MiddleWare&lt;/font&gt;&lt;/b&gt;" style="rounded=0;whiteSpace=wrap;html=1;fillColor=none;strokeColor=#000000;strokeWidth=3;" parent="1" vertex="1">
                    <mxGeometry x="620" y="518" width="160" height="132" as="geometry"/>
                </mxCell>
                <mxCell id="106" value="" style="endArrow=classic;html=1;strokeColor=#000000;strokeWidth=3;fontSize=11;exitX=0.75;exitY=1;exitDx=0;exitDy=0;entryX=0;entryY=0.25;entryDx=0;entryDy=0;" parent="1" source="61" target="103" edge="1">
                    <mxGeometry width="50" height="50" relative="1" as="geometry">
                        <mxPoint x="390" y="440" as="sourcePoint"/>
                        <mxPoint x="440" y="390" as="targetPoint"/>
                    </mxGeometry>
                </mxCell>
                <mxCell id="108" value="&lt;font style=&quot;font-size: 18px&quot; color=&quot;#000000&quot;&gt;&lt;b&gt;⑥connect&lt;/b&gt;&lt;/font&gt;" style="edgeLabel;html=1;align=center;verticalAlign=middle;resizable=0;points=[];fontSize=11;rotation=55;" parent="106" vertex="1" connectable="0">
                    <mxGeometry x="-0.2513" y="1" relative="1" as="geometry">
                        <mxPoint as="offset"/>
                    </mxGeometry>
                </mxCell>
                <mxCell id="107" value="" style="endArrow=classic;html=1;strokeColor=#000000;strokeWidth=3;fontSize=11;exitX=0.5;exitY=1;exitDx=0;exitDy=0;entryX=0;entryY=0.75;entryDx=0;entryDy=0;" parent="1" source="61" target="103" edge="1">
                    <mxGeometry width="50" height="50" relative="1" as="geometry">
                        <mxPoint x="360" y="430" as="sourcePoint"/>
                        <mxPoint x="410" y="380" as="targetPoint"/>
                    </mxGeometry>
                </mxCell>
                <mxCell id="109" value="&lt;b&gt;&lt;font color=&quot;#000000&quot; style=&quot;font-size: 18px&quot;&gt;⑨message&lt;/font&gt;&lt;/b&gt;" style="edgeLabel;html=1;align=center;verticalAlign=middle;resizable=0;points=[];fontSize=11;rotation=55;" parent="107" vertex="1" connectable="0">
                    <mxGeometry x="-0.2451" y="-2" relative="1" as="geometry">
                        <mxPoint as="offset"/>
                    </mxGeometry>
                </mxCell>
            </root>
        </mxGraphModel>
    </diagram>
</mxfile>